<?xml version="1.0" encoding="iso-8859-1"?>
<!-- Generator: Adobe Illustrator 19.0.0, SVG Export Plug-In . SVG Version: 6.00 Build 0)  -->
<svg version="1.1" id="Layer_1" xmlns="http://www.w3.org/2000/svg" xmlns:xlink="http://www.w3.org/1999/xlink" x="0px" y="0px"
	 viewBox="0 0 512 512" style="enable-background:new 0 0 512 512;" xml:space="preserve">
<polygon style="fill:#84DCCF;" points="504,448 504,416 456,304 456,64.001 56.001,64.001 56.001,304 8,416 8,448 "/>
<polygon style="fill:#027EA8;" points="184.32,304 184.32,63.815 55.504,63.815 55.504,304 7.718,416 7.718,448.186 
	135.495,448.186 135.495,416 "/>
<rect x="8" y="414.279" style="fill:#FBA218;" width="495.995" height="33.724"/>
<rect x="8" y="414.279" style="fill:#F14507;" width="127.996" height="33.724"/>
<rect x="80.001" y="88" style="fill:#FFFFFF;" width="352.001" height="191.999"/>
<g>
	<rect x="80.001" y="88" style="fill:#F2F2F2;" width="103.998" height="191.999"/>
	<rect x="199.998" y="88" style="fill:#F2F2F2;" width="23.997" height="191.999"/>
	<rect x="256.002" y="88" style="fill:#F2F2F2;" width="8" height="191.999"/>
</g>
<rect x="63.816" y="408.711" style="fill:#FFFFFF;" width="16.621" height="15.583"/>
<rect x="96.02" y="408.711" width="15.583" height="15.583"/>
<rect x="128.224" y="408.711" style="fill:#FFFFFF;" width="15.583" height="15.583"/>
<path d="M464,302.358V56H48v246.357L0,414.357V456h512v-41.643L464,302.358z M16,440v-15.707h32.231V408.71H19.828l41.405-96.612
	h339.165v-15.583H64V72.001h384v224.514h-32.018v15.583h34.785l41.405,96.612H160.427v15.583H496V440L16,440L16,440z"/>
<rect x="72.127" y="328.72" style="fill:#FBA218;" width="15.583" height="15.583"/>
<rect x="96.02" y="328.72" width="15.583" height="15.583"/>
<rect x="119.913" y="328.72" style="fill:#FBA218;" width="15.583" height="15.583"/>
<rect x="143.807" y="328.72" width="16.621" height="15.583"/>
<rect x="167.7" y="328.72" style="fill:#FBA218;" width="16.621" height="15.583"/>
<rect x="191.593" y="328.72" width="16.621" height="15.583"/>
<rect x="215.487" y="328.72" style="fill:#FBA218;" width="16.621" height="15.583"/>
<rect x="240.419" y="328.72" width="15.583" height="15.583"/>
<rect x="264.312" y="328.72" style="fill:#FBA218;" width="15.583" height="15.583"/>
<rect x="288.206" y="328.72" width="15.583" height="15.583"/>
<rect x="312.099" y="328.72" style="fill:#FBA218;" width="15.583" height="15.583"/>
<rect x="335.992" y="328.72" width="15.583" height="15.583"/>
<rect x="55.505" y="352.614" width="16.621" height="15.583"/>
<rect x="80.437" y="352.614" width="15.583" height="15.583"/>
<rect x="104.331" y="352.614" width="15.583" height="15.583"/>
<rect x="128.224" y="352.614" width="15.583" height="15.583"/>
<rect x="152.117" y="352.614" width="15.583" height="15.583"/>
<rect x="176.011" y="352.614" width="15.583" height="15.583"/>
<rect x="199.904" y="352.614" width="15.583" height="15.583"/>
<rect x="223.797" y="352.614" width="16.621" height="15.583"/>
<rect x="247.691" y="352.614" width="16.621" height="15.583"/>
<rect x="271.584" y="352.614" width="16.621" height="15.583"/>
<rect x="296.516" y="352.614" width="15.583" height="15.583"/>
<rect x="320.41" y="352.614" width="15.583" height="15.583"/>
<rect x="344.303" y="352.614" width="15.583" height="15.583"/>
<rect x="376.507" y="328.72" width="15.583" height="15.583"/>
<rect x="400.4" y="328.72" style="fill:#FFFFFF;" width="15.583" height="15.583"/>
<rect x="424.294" y="328.72" width="15.583" height="15.583"/>
<rect x="392.09" y="352.614" style="fill:#FFFFFF;" width="15.583" height="15.583"/>
<rect x="415.983" y="352.614" width="15.583" height="15.583"/>
<rect x="439.876" y="352.614" style="fill:#FFFFFF;" width="16.621" height="15.583"/>
<rect x="407.672" y="376.507" width="16.621" height="15.583"/>
<rect x="431.566" y="376.507" style="fill:#FFFFFF;" width="16.621" height="15.583"/>
<rect x="456.498" y="376.507" width="15.583" height="15.583"/>
<rect x="128.224" y="376.507" style="fill:#FBA218;" width="159.981" height="15.583"/>
<rect x="296.516" y="376.507" style="fill:#FFFFFF;" width="31.165" height="15.583"/>
<rect x="335.992" y="376.507" width="32.204" height="15.583"/>
<rect x="48.233" y="376.507" width="32.204" height="15.583"/>
<rect x="87.709" y="376.507" style="fill:#FFFFFF;" width="32.204" height="15.583"/>
<rect x="247.691" y="80.437" style="fill:#F14507;" width="16.621" height="15.583"/>
<polygon points="439.875,288.205 72.126,288.205 72.126,80.436 232.107,80.436 232.107,96.019 87.708,96.019 87.708,272.622 
	424.293,272.622 424.293,96.019 279.894,96.019 279.894,80.436 439.875,80.436 "/>
<polygon points="135.495,264.311 96.019,264.311 96.019,208.214 111.602,208.214 111.602,248.729 135.495,248.729 "/>
<rect x="152.117" y="248.73" width="15.583" height="15.583"/>
<g>
</g>
<g>
</g>
<g>
</g>
<g>
</g>
<g>
</g>
<g>
</g>
<g>
</g>
<g>
</g>
<g>
</g>
<g>
</g>
<g>
</g>
<g>
</g>
<g>
</g>
<g>
</g>
<g>
</g>
</svg>
