<?xml version="1.0" encoding="iso-8859-1"?>
<!-- Generator: Adobe Illustrator 19.0.0, SVG Export Plug-In . SVG Version: 6.00 Build 0)  -->
<svg version="1.1" id="Layer_1" xmlns="http://www.w3.org/2000/svg" xmlns:xlink="http://www.w3.org/1999/xlink" x="0px" y="0px"
	 viewBox="0 0 512 512" style="enable-background:new 0 0 512 512;" xml:space="preserve">
<path style="fill:#F15A24;" d="M423.917,482.548H88.083c-44.299,0-80.211-35.911-80.211-80.211V34.317l96.051,48.024h319.994
	c44.299,0,80.211,35.911,80.211,80.211v239.785C504.128,446.637,468.216,482.548,423.917,482.548z"/>
<path style="fill:#FBB03B;" d="M152.086,402.337V82.093h-48.163L8.285,34.317v368.021c0,44.299,35.499,80.719,79.798,80.719h141.599
	C185.383,483.056,152.086,446.637,152.086,402.337z"/>
<path style="fill:#FFFFFF;" d="M336.041,250.429h-32.016h-8.005c-8.841,0-16.008-7.167-16.008-16.008v-76.039
	c0-11.052-8.959-20.01-20.01-20.01l0,0c-11.052,0-20.01,8.959-20.01,20.01v76.039c0,8.841-7.167,16.008-16.008,16.008l0,0h-16.008
	v160.082h128.066"/>
<path style="fill:#F2F2F2;" d="M223.983,378.092c26.523,0,48.024-21.235,48.024-47.759s-21.502-47.759-48.024-47.759h-16.267v95.517
	H223.983z"/>
<rect x="95.916" y="250.434" style="fill:#84DCCF;" width="112.06" height="176.088"/>
<g>
	<path style="fill:#F2F2F2;" d="M396.072,290.45h-64.033c-11.052,0-20.01-8.959-20.01-20.01l0,0c0-11.052,8.959-20.01,20.01-20.01
		h64.033c11.052,0,20.01,8.959,20.01,20.01l0,0C416.083,281.49,407.124,290.45,396.072,290.45z"/>
	<path style="fill:#F2F2F2;" d="M396.072,330.47h-64.033c-11.052,0-20.01-8.959-20.01-20.01l0,0c0-11.052,8.959-20.01,20.01-20.01
		h64.033c11.052,0,20.01,8.959,20.01,20.01l0,0C416.083,321.511,407.124,330.47,396.072,330.47z"/>
	<path style="fill:#F2F2F2;" d="M396.072,370.49h-64.033c-11.052,0-20.01-8.959-20.01-20.01l0,0c0-11.052,8.959-20.01,20.01-20.01
		h64.033c11.052,0,20.01,8.959,20.01,20.01l0,0C416.083,361.532,407.124,370.49,396.072,370.49z"/>
	<path style="fill:#F2F2F2;" d="M396.072,410.511h-64.033c-11.052,0-20.01-8.959-20.01-20.01l0,0c0-11.052,8.959-20.01,20.01-20.01
		h64.033c11.052,0,20.01,8.959,20.01,20.01l0,0C416.083,401.552,407.124,410.511,396.072,410.511z"/>
</g>
<rect x="95.916" y="250.434" style="fill:#027EA8;" width="40.023" height="176.088"/>
<circle style="fill:#FFFFFF;" cx="135.939" cy="370.492" r="16.008"/>
<path d="M215.848,434.391H88.045V242.557h127.802V434.391z M103.79,418.647h96.313V258.301H103.79V418.647z"/>
<path d="M423.955,310.46c0-7.845-3.261-14.939-8.494-20.01c5.232-5.072,8.494-12.165,8.494-20.01
	c0-15.375-12.508-27.883-27.883-27.883h-60.03h-4.002h-36.018c-4.486,0-8.136-3.65-8.136-8.136v-76.04
	c0-15.374-12.509-27.883-27.882-27.883c-15.375,0-27.883,12.509-27.883,27.883v76.039c0,4.486-3.65,8.136-8.136,8.136V258.3
	c13.168,0,23.88-10.713,23.88-23.88v-76.039c0-6.693,5.445-12.138,12.138-12.138c6.693,0,12.137,5.446,12.137,12.138v76.039
	c0,13.168,10.713,23.88,23.88,23.88h10.92c-1.783,3.672-2.785,7.789-2.785,12.138c0,7.845,3.261,14.939,8.494,20.01
	c-5.232,5.072-8.494,12.165-8.494,20.01s3.261,14.939,8.494,20.01c-5.232,5.072-8.494,12.165-8.494,20.01s3.261,14.939,8.494,20.01
	c-5.232,5.072-8.494,12.165-8.494,20.01c0,4.311,0.985,8.396,2.739,12.044l-83.405-0.311l-0.059,15.745l108.578,0.405v-0.001
	c0.009,0,0.019,0.001,0.029,0.001h64.032c15.374,0,27.883-12.509,27.883-27.883c0-7.845-3.261-14.939-8.494-20.01
	c5.232-5.072,8.494-12.165,8.494-20.01s-3.261-14.94-8.494-20.01C420.693,325.399,423.955,318.305,423.955,310.46z M319.901,270.439
	c0-6.694,5.446-12.138,12.138-12.138h4.002h60.03c6.693,0,12.138,5.444,12.138,12.138c0,6.693-5.446,12.138-12.138,12.138h-64.032
	C325.346,282.577,319.901,277.132,319.901,270.439z M408.21,390.501c0,6.693-5.446,12.138-12.138,12.138h-64.004h-0.031
	c-6.691-0.001-12.136-5.446-12.136-12.138s5.446-12.138,12.138-12.138h64.032C402.765,378.363,408.21,383.808,408.21,390.501z
	 M408.21,350.481c0,6.693-5.446,12.138-12.138,12.138H332.04c-6.693,0-12.138-5.446-12.138-12.138s5.446-12.138,12.138-12.138
	h64.032C402.765,338.342,408.21,343.787,408.21,350.481z M332.039,322.597c-6.693,0-12.138-5.446-12.138-12.138
	s5.446-12.138,12.138-12.138h64.032c6.693,0,12.138,5.446,12.138,12.138s-5.446,12.138-12.138,12.138H332.039z"/>
<path d="M159.819,370.49c0-10.456-6.757-19.356-16.131-22.582v-17.05h-15.745v17.132c-9.247,3.296-15.886,12.135-15.886,22.5
	c0,10.365,6.639,19.204,15.886,22.5v17.64h15.745v-17.557C153.062,389.847,159.819,380.946,159.819,370.49z M135.938,378.627
	c-4.486,0-8.136-3.65-8.136-8.136c0-4.486,3.65-8.136,8.136-8.136s8.136,3.65,8.136,8.136
	C144.074,374.976,140.424,378.627,135.938,378.627z"/>
<path d="M223.462,386.367v-15.745c23.092,0,40.675-17.722,40.675-39.765h15.745C279.881,361.298,254.951,386.367,223.462,386.367z"
	/>
<path d="M423.917,490.42H88.083C39.514,490.42,0,450.907,0,402.337V21.58l105.781,52.89h318.136
	c48.569,0,88.083,39.514,88.083,88.084v239.785C512,450.907,472.486,490.42,423.917,490.42z M15.745,47.054v355.282
	c0,39.887,32.451,72.339,72.338,72.339h335.834c39.887,0,72.338-32.452,72.338-72.339V162.553c0-39.889-32.451-72.339-72.338-72.339
	H102.064L15.745,47.054z"/>
<g>
</g>
<g>
</g>
<g>
</g>
<g>
</g>
<g>
</g>
<g>
</g>
<g>
</g>
<g>
</g>
<g>
</g>
<g>
</g>
<g>
</g>
<g>
</g>
<g>
</g>
<g>
</g>
<g>
</g>
</svg>
