<?xml version="1.0" encoding="iso-8859-1"?>
<!-- Generator: Adobe Illustrator 19.0.0, SVG Export Plug-In . SVG Version: 6.00 Build 0)  -->
<svg version="1.1" id="Layer_1" xmlns="http://www.w3.org/2000/svg" xmlns:xlink="http://www.w3.org/1999/xlink" x="0px" y="0px"
	 viewBox="0 0 512 512" style="enable-background:new 0 0 512 512;" xml:space="preserve">
<rect x="8.207" y="104.345" style="fill:#FFFFFF;" width="495.583" height="255.786"/>
<rect x="391.888" y="192.271" style="fill:#027EA8;" width="79.932" height="135.882"/>
<path style="fill:#FBA218;" d="M176.066,360.126L176.066,360.126c0-17.659,14.315-31.973,31.973-31.973h95.92
	c17.659,0,31.973,14.315,31.973,31.973l0,0"/>
<path style="fill:#F14507;" d="M255.999,327.944H208.04c-17.659,0-31.973,13.621-31.973,32.48h47.96
	C224.027,341.565,238.341,327.944,255.999,327.944z"/>
<rect x="128.108" y="104.345" style="fill:#F2F2F2;" width="23.98" height="255.786"/>
<circle style="fill:#FBA218;" cx="255.995" cy="224.238" r="79.932"/>
<path style="fill:#F14507;" d="M232.02,224.24c0-34.288,21.631-63.448,51.957-74.799c-8.719-3.264-18.119-5.134-27.977-5.134
	c-44.146,0-79.933,35.787-79.933,79.933c0,44.146,35.788,79.933,79.933,79.933c9.858,0,19.258-1.87,27.977-5.134
	C253.65,287.688,232.02,258.528,232.02,224.24z"/>
<path style="fill:#FFFFFF;" d="M287.972,247.268c0,18.859-14.315,31.973-31.973,31.973s-31.973-13.114-31.973-31.973H287.972z"/>
<rect x="8.207" y="104.345" style="fill:#F2F2F2;" width="103.915" height="255.786"/>
<path style="fill:#84DCCF;" d="M208.04,408.087v63.947c0,17.659-14.315,31.973-31.973,31.973h-7.993h175.853l0,0
	c-17.659,0-31.973-14.315-31.973-31.973v-63.947"/>
<rect x="208.04" y="408.086" style="fill:#027EA8;" width="103.915" height="31.973"/>
<rect x="8.207" y="360.131" style="fill:#84DCCF;" width="495.583" height="49.902"/>
<rect x="8.207" y="360.131" style="fill:#027EA8;" width="95.921" height="49.902"/>
<rect x="224.008" y="353.09" width="63.912" height="15.716"/>
<path d="M255.999,312.166c-48.482,0-87.927-39.443-87.927-87.926c0-48.483,39.443-87.927,87.927-87.927
	c48.482,0,87.927,39.443,87.927,87.927S304.482,312.166,255.999,312.166z M255.999,152.3c-39.668,0-71.94,32.273-71.94,71.94
	c0,39.667,32.273,71.939,71.94,71.939s71.94-32.273,71.94-71.939C327.94,184.573,295.667,152.3,255.999,152.3z"/>
<path d="M256.482,287.624c-22.708,0-39.813-17.124-39.813-39.832v-7.858h79.629v7.858
	C296.298,270.499,279.19,287.624,256.482,287.624z M233.047,255.65c3.038,9.759,11.768,16.258,22.953,16.258
	c11.185,0,19.914-6.498,22.954-16.258H233.047z"/>
<rect x="215.626" y="184.403" width="15.716" height="15.716"/>
<rect x="280.586" y="184.403" width="15.716" height="15.716"/>
<path d="M255.999,312.166c-48.482,0-87.927-39.443-87.927-87.926c0-48.483,39.443-87.927,87.927-87.927
	c48.482,0,87.927,39.443,87.927,87.927S304.482,312.166,255.999,312.166z M255.999,152.3c-39.668,0-71.94,32.273-71.94,71.94
	c0,39.667,32.273,71.939,71.94,71.939s71.94-32.273,71.94-71.939C327.94,184.573,295.667,152.3,255.999,152.3z"/>
<path d="M256.482,287.624c-22.708,0-39.813-17.124-39.813-39.832v-7.858h79.629v7.858
	C296.298,270.499,279.19,287.624,256.482,287.624z M233.047,255.65c3.038,9.759,11.768,16.258,22.953,16.258
	c11.185,0,19.914-6.498,22.954-16.258H233.047z"/>
<g>
	<rect x="215.626" y="184.403" style="fill:#FFFFFF;" width="15.716" height="15.716"/>
	<rect x="280.586" y="184.403" style="fill:#FFFFFF;" width="15.716" height="15.716"/>
</g>
<path d="M0.214,96.347V416.08h511.572V96.347H0.214z M495.8,400.094H16.2v-31.288h192.087V353.09h-23.173
	c3.014-9.8,12.15-16.943,22.925-16.943h95.92c10.775,0,19.911,7.144,22.925,16.943h-23.253v15.716h192.168v31.288H495.8z
	 M495.8,353.09H343.293c-3.336-18.692-19.699-32.93-39.334-32.93H208.04c-19.636,0-35.997,14.238-39.333,32.93H16.2V112.334h479.6
	V353.09z"/>
<g>
	<rect x="32.266" y="376.14" style="fill:#FFFFFF;" width="15.716" height="15.716"/>
	<rect x="64.746" y="376.14" style="fill:#FFFFFF;" width="15.716" height="15.716"/>
	<rect x="96.183" y="376.14" style="fill:#FFFFFF;" width="15.716" height="15.716"/>
	<rect x="400.029" y="376.14" style="fill:#FFFFFF;" width="15.716" height="15.716"/>
	<rect x="431.461" y="376.14" style="fill:#FFFFFF;" width="15.716" height="15.716"/>
	<rect x="463.941" y="376.14" style="fill:#FFFFFF;" width="15.716" height="15.716"/>
</g>
<path d="M343.926,512H168.073v-15.986h7.993c13.223,0,23.981-10.758,23.981-23.981v-47.959h15.986v47.959
	c0,8.989-2.984,17.296-8.013,23.981h103.952c-5.028-6.685-8.011-14.992-8.011-23.981v-47.959h15.986v47.959
	c0,13.223,10.757,23.981,23.98,23.981V512H343.926z"/>
<rect x="231.342" y="464.151" width="56.578" height="15.716"/>
<rect x="247.058" y="72.294" width="17.812" height="15.716"/>
<rect x="239.724" y="49.244" style="fill:#FBA218;" width="32.48" height="15.716"/>
<rect x="224.008" y="24.098" width="63.912" height="15.716"/>
<rect x="208.292" style="fill:#FBA218;" width="95.345" height="15.716"/>
<path d="M479.812,336.147h-95.92V184.274h95.92V336.147z M399.879,320.16h63.947v-119.9h-63.947V320.16z"/>
<g>
	<rect x="415.745" y="215.835" style="fill:#FFFFFF;" width="31.432" height="15.716"/>
	<rect x="415.745" y="239.933" style="fill:#FFFFFF;" width="31.432" height="15.716"/>
	<rect x="415.745" y="265.079" style="fill:#FFFFFF;" width="31.432" height="15.716"/>
	<rect x="415.745" y="288.13" style="fill:#FFFFFF;" width="31.432" height="15.716"/>
</g>
<polygon points="47.982,208.501 32.266,208.501 32.266,127.825 87.797,127.825 87.797,143.541 47.982,143.541 "/>
<rect x="32.266" y="224.217" width="15.716" height="15.716"/>
<g>
</g>
<g>
</g>
<g>
</g>
<g>
</g>
<g>
</g>
<g>
</g>
<g>
</g>
<g>
</g>
<g>
</g>
<g>
</g>
<g>
</g>
<g>
</g>
<g>
</g>
<g>
</g>
<g>
</g>
</svg>
