<?xml version="1.0" encoding="iso-8859-1"?>
<!-- Generator: Adobe Illustrator 19.0.0, SVG Export Plug-In . SVG Version: 6.00 Build 0)  -->
<svg version="1.1" id="Layer_1" xmlns="http://www.w3.org/2000/svg" xmlns:xlink="http://www.w3.org/1999/xlink" x="0px" y="0px"
	 viewBox="0 0 473.935 473.935" style="enable-background:new 0 0 473.935 473.935;" xml:space="preserve">
<circle style="fill:#4ABC96;" cx="236.967" cy="236.967" r="236.967"/>
<path style="fill:#E9C29C;" d="M346.924,265.753c0,57.979-46.978,104.961-104.938,104.961c-57.957,0-104.938-46.982-104.938-104.961
	c0-57.942,46.982-104.931,104.938-104.931C299.945,160.822,346.924,207.808,346.924,265.753z"/>
<g>
	<ellipse style="fill:#343433;" cx="210.513" cy="281.345" rx="14.376" ry="15.188"/>
	<ellipse style="fill:#343433;" cx="272.851" cy="281.345" rx="14.38" ry="15.188"/>
</g>
<g>
	<path style="fill:#FFFFFF;" d="M283.074,275.598c0,3.349-2.567,6.08-5.747,6.08c-3.162,0-5.736-2.732-5.736-6.08
		c0-3.36,2.574-6.073,5.736-6.073C280.507,269.525,283.074,272.234,283.074,275.598z"/>
	<path style="fill:#FFFFFF;" d="M220.62,275.598c0,3.349-2.571,6.08-5.755,6.08c-3.173,0-5.744-2.732-5.744-6.08
		c0-3.36,2.574-6.073,5.744-6.073C218.053,269.525,220.62,272.234,220.62,275.598z"/>
</g>
<path style="fill:#B25E27;" d="M346.924,265.753l-71.547-64.37c0,0-15.244,25.235-55.876,43.603
	c-39.184,17.717-82.454,20.767-82.454,20.767c0-57.942,46.982-104.931,104.938-104.931
	C299.945,160.822,346.924,207.808,346.924,265.753z"/>
<path style="fill:#367180;" d="M341.925,246.554l45.624-53.399l-52.262-62.735l-93.301-38.293l-94.933,39.289l-50.866,61.762
	l45.871,53.377C142.057,199.246,341.925,199.246,341.925,246.554z"/>
<path style="fill:#E79E2D;" d="M264.788,131.109c3.476-5.108-0.153-13.792-8.239-10.926c-7.824,2.78-16.449-3.147-16.823-3.398
	v-0.022l-0.034-0.007l0,0h-0.004l0,0l0,0l-0.034,0.007v0.022c-0.374,0.251-8.999,6.178-16.823,3.398
	c-8.082-2.866-11.719,5.818-8.243,10.926c3.775,5.553,4.404,8.273,4.404,9.362c-0.015,2.926-10.866,9.164-2.395,22.971
	c3.154,5.108,5.25,4.4,17.036,5.545c0,0,5.321,1.938,6.054,5.429v-1.598l0.004,1.598c0.733-3.495,6.054-5.429,6.054-5.429
	c11.779-1.149,13.886-0.438,17.036-5.545c8.479-13.803-2.376-20.041-2.395-22.971C260.387,139.382,261.02,136.665,264.788,131.109z"
	/>
<path style="fill:#FFC10D;" d="M254.733,140.815c-0.236-0.741-0.879-1.283-1.65-1.396l-8.034-1.167l-3.592-7.282
	c-0.692-1.403-2.986-1.403-3.674,0l-3.596,7.282l-8.034,1.167c-0.771,0.112-1.411,0.655-1.654,1.396
	c-0.236,0.741-0.037,1.557,0.52,2.107l5.815,5.665l-1.369,7.996c-0.135,0.771,0.183,1.549,0.816,2.009
	c0.636,0.453,1.474,0.52,2.159,0.153l7.188-3.779l7.184,3.779c0.296,0.157,0.625,0.236,0.947,0.236c0.43,0,0.853-0.135,1.209-0.389
	c0.632-0.46,0.95-1.239,0.816-2.009l-1.369-7.996l5.815-5.665C254.778,142.371,254.98,141.556,254.733,140.815z"/>
<path style="fill:#2D6370;" d="M346.924,243.669H137.047c0-31.18,46.982-57.998,104.938-57.998
	C299.945,185.671,346.924,211.243,346.924,243.669z"/>
<path style="fill:#FFC10D;" d="M241.985,203.134c47.046,0,86.854,16.849,100.175,40.535h4.76c0-32.426-46.978-57.998-104.938-57.998
	c-57.957,0-104.938,26.817-104.938,57.998h5.048C155.681,220.575,195.258,203.134,241.985,203.134z"/>
<g>
</g>
<g>
</g>
<g>
</g>
<g>
</g>
<g>
</g>
<g>
</g>
<g>
</g>
<g>
</g>
<g>
</g>
<g>
</g>
<g>
</g>
<g>
</g>
<g>
</g>
<g>
</g>
<g>
</g>
</svg>
