<?xml version="1.0" encoding="iso-8859-1"?>
<!-- Generator: Adobe Illustrator 19.0.0, SVG Export Plug-In . SVG Version: 6.00 Build 0)  -->
<svg version="1.1" id="Layer_1" xmlns="http://www.w3.org/2000/svg" xmlns:xlink="http://www.w3.org/1999/xlink" x="0px" y="0px"
	 viewBox="0 0 473.939 473.939" style="enable-background:new 0 0 473.939 473.939;" xml:space="preserve">
<circle style="fill:#E84849;" cx="236.969" cy="236.967" r="236.967"/>
<g>
	<path style="fill:#F3C9A1;" d="M317.399,294.61c0,17.306-7.323,68.153-10.129,68.153H194.081c-5.171,0-10.915-27.135-14.032-35.24
		l-0.004-32.06c0-17.306,5.953-40.43,23.255-40.43h90.873c17.306,0,23.225,5.92,23.225,23.225V294.61z"/>
	<path style="fill:#F3C9A1;" d="M179.941,326.83c0,0-28.101-38.802-35.951-54.757c-3.996-8.146-2.466-28.131-3.858-47.76
		c-1.34-18.851-7.502-35.771-2.926-39.88c12.52-11.263,27.727,10.937,29.1,13.631c11.686,22.911,13.987,57.201,13.987,57.201
		l22.196,27.674L179.941,326.83z"/>
	<polygon style="fill:#F3C9A1;" points="317.399,293.895 177.232,318.482 177.232,194.468 317.399,210.693 	"/>
	<path style="fill:#F3C9A1;" d="M211.922,205.862c0,9.568-7.753,17.313-17.306,17.313l0,0c-9.568,0-17.313-7.745-17.313-17.313
		V93.548c0-9.56,7.745-17.313,17.313-17.313l0,0c9.553,0,17.306,7.753,17.306,17.313V205.862z"/>
	<path style="fill:#F3C9A1;" d="M247.08,205.862c0,9.568-7.749,17.313-17.306,17.313l0,0c-9.564,0-17.317-7.745-17.317-17.313V66.51
		c0-9.56,7.753-17.317,17.317-17.317l0,0c9.557,0,17.306,7.757,17.306,17.317V205.862z"/>
	<path style="fill:#F3C9A1;" d="M282.237,205.862c0,9.568-7.749,17.313-17.31,17.313l0,0c-9.56,0-17.317-7.745-17.317-17.313V88.142
		c0-9.56,7.757-17.313,17.317-17.313l0,0c9.56,0,17.31,7.753,17.31,17.313V205.862z"/>
	<path style="fill:#F3C9A1;" d="M317.399,208.567c0,9.56-7.757,17.313-17.31,17.313l0,0c-9.568,0-17.317-7.753-17.317-17.313
		v-60.931c0-9.56,7.749-17.313,17.317-17.313l0,0c9.553,0,17.31,7.753,17.31,17.313V208.567z"/>
</g>
<rect x="183.611" y="354.572" style="fill:#EADEDF;" width="127.296" height="97.361"/>
<path style="fill:#9F2322;" d="M314.843,366.729H181.819c-2.342,0-4.239,1.908-4.239,4.247v95.46
	c18.975,4.898,38.873,7.502,59.375,7.502c28.879,0,56.538-5.179,82.132-14.638V370.98
	C319.09,368.637,317.193,366.729,314.843,366.729z"/>
<g>
</g>
<g>
</g>
<g>
</g>
<g>
</g>
<g>
</g>
<g>
</g>
<g>
</g>
<g>
</g>
<g>
</g>
<g>
</g>
<g>
</g>
<g>
</g>
<g>
</g>
<g>
</g>
<g>
</g>
</svg>
