<?xml version="1.0" encoding="iso-8859-1"?>
<!-- Generator: Adobe Illustrator 19.0.0, SVG Export Plug-In . SVG Version: 6.00 Build 0)  -->
<svg version="1.1" id="Layer_1" xmlns="http://www.w3.org/2000/svg" xmlns:xlink="http://www.w3.org/1999/xlink" x="0px" y="0px"
	 viewBox="0 0 494.4 494.4" style="enable-background:new 0 0 494.4 494.4;" xml:space="preserve">
<path style="fill:#C9055E;" d="M377.2,143.2h-26.4c-20.8,0-36.8,14.4-36.8,35.2v26.4c0,15.2,10.4,28.8,23.2,34.4c0,0,0.8,0,0.8,0.8
	v16h-64V104.8l16,1.6c4.8,4.8,10.4,7.2,16,7.2s12-2.4,16-7.2c8.8-8.8,8.8-24,0-32.8L248.4,0l-73.6,73.6c-8.8,8.8-8.8,24,0,32.8
	s24,8.8,32.8,0l16.8-1.6v190.4h-64v-16c0-2.4,0-4.8-0.8-7.2c16-8.8,27.2-25.6,27.2-44.8c0-28-23.2-51.2-51.2-51.2
	s-51.2,23.2-51.2,51.2c0,20.8,12,38.4,29.6,46.4c0.8,1.6,0,3.2,0,5.6v22.4c0,20.8,18.4,41.6,40,41.6h72v30.4
	c-24,9.6-39.2,32-39.2,58.4c0,34.4,28,62.4,62.4,62.4s63.2-28,63.2-62.4c0-26.4-14.4-48.8-38.4-58.4v-70.4h70.4
	c20.8,0,41.6-20,41.6-41.6v-20.8c16-3.2,24-18.4,24-36v-26.4C410,157.6,397.2,143.2,377.2,143.2z M249.2,448c-8.8,0-16-7.2-16-16
	s7.2-16,16-16c8.8,0,16,7.2,16,16C265.2,440.8,258,448,249.2,448z"/>
<path style="fill:#E0055F;" d="M274,373.6v-70.4h-0.8L226,224.8v70.4h-64v-16c0-2.4,0-4.8-0.8-7.2c16-8.8,27.2-25.6,27.2-44.8
	c0-28-23.2-51.2-51.2-51.2S86,199.2,86,227.2c0,20.8,12,38.4,29.6,46.4c-0.8,1.6-1.6,3.2-1.6,5.6v22.4c0,20.8,18.4,41.6,40,41.6h72
	v30.4c-24,9.6-39.2,32-39.2,58.4c0,34.4,28,62.4,62.4,62.4s63.2-28,63.2-62.4C312.4,405.6,298,383.2,274,373.6z M249.2,448
	c-8.8,0-16-7.2-16-16s7.2-16,16-16c8.8,0,16,7.2,16,16C265.2,440.8,258,448,249.2,448z"/>
<path style="fill:#C9055E;" d="M162,292.8v-13.6c0-2.4,0-4.8-0.8-7.2c0,0,0-0.8-0.8-0.8h-7.2c-5.6,0-10.4,6.4-10.4,12
	s4.8,12,10.4,12h7.2C161.2,295.2,162,292.8,162,292.8z"/>
<path style="fill:#E0055F;" d="M339.6,239.2H338v4.8l0,0v11.2h-5.6c0.8,0,1.6,0.8,2.4,0.8h5.6c4,0,8-4,8-8.8
	C347.6,243.2,344.4,239.2,339.6,239.2z"/>
<g>
</g>
<g>
</g>
<g>
</g>
<g>
</g>
<g>
</g>
<g>
</g>
<g>
</g>
<g>
</g>
<g>
</g>
<g>
</g>
<g>
</g>
<g>
</g>
<g>
</g>
<g>
</g>
<g>
</g>
</svg>
