<?xml version="1.0" encoding="iso-8859-1"?>
<!-- Generator: Adobe Illustrator 19.0.0, SVG Export Plug-In . SVG Version: 6.00 Build 0)  -->
<svg version="1.1" id="Layer_1" xmlns="http://www.w3.org/2000/svg" xmlns:xlink="http://www.w3.org/1999/xlink" x="0px" y="0px"
	 viewBox="0 0 494.4 494.4" style="enable-background:new 0 0 494.4 494.4;" xml:space="preserve">
<path style="fill:#F79406;" d="M419.2,172c0-95.2-76.8-172-172-172s-172,76.8-172,172c0,52,23.2,98.4,59.2,129.6l0,0l112.8,112.8
	L360,301.6l0,0C396,270.4,419.2,224,419.2,172z"/>
<path style="fill:#FFB600;" d="M419.2,172c0-95.2-76.8-172-172-172s-172,76.8-172,172c0,52,23.2,64.8,59.2,96l0,0l112.8,112.8
	L360,268l0,0C396,236.8,419.2,224,419.2,172z"/>
<path style="fill:#FF9D00;" d="M247.2,380.8L360,268l0,0c36-31.2,59.2-44,59.2-96c0-95.2-76.8-172-172-172"/>
<ellipse style="fill:#BCBCBC;" cx="247.2" cy="470.4" rx="141.6" ry="24"/>
<ellipse style="fill:#A5A5A5;" cx="247.2" cy="458.4" rx="70.4" ry="12"/>
<g>
	<path style="fill:#F79406;" d="M205.6,140.8H188c-3.2,0-6.4,3.2-6.4,6.4v97.6c0,3.2,3.2,6.4,6.4,6.4h17.6c3.2,0,6.4-3.2,6.4-6.4
		v-97.6C212,144,209.6,140.8,205.6,140.8z"/>
	<path style="fill:#F79406;" d="M196.8,102.4c-9.6,0-17.6,8-17.6,17.6s7.2,17.6,16.8,17.6c4.8,0,9.6-1.6,12.8-5.6
		c3.2-3.2,4.8-7.2,4.8-12C214.4,110.4,207.2,102.4,196.8,102.4z"/>
	<path style="fill:#F79406;" d="M286.4,139.2c-11.2,0-21.6,3.2-29.6,9.6v-1.6c0-3.2-3.2-6.4-6.4-6.4h-16c-1.6,0-3.2,0.8-4.8,1.6
		c-1.6,1.6-1.6,3.2-1.6,4.8c0.8,9.6,0.8,19.2,0.8,32v105.6c0,3.2,3.2,6.4,6.4,6.4h17.6c3.2,0,6.4-3.2,6.4-6.4v-37.6
		c24.8,16,75.2,3.2,75.2-52C334.4,162.4,314.4,139.2,286.4,139.2z M280.8,165.6c16,0,22.4,15.2,22.4,30.4c0,20-8.8,31.2-23.2,31.2
		c-9.6,0-18.4-6.4-20.8-15.2c0-1.6-0.8-4-0.8-6.4v-16.8c0-1.6,0.8-4,0.8-5.6C263.2,172.8,271.2,165.6,280.8,165.6z"/>
</g>
<g>
	<path style="fill:#FFFFFF;" d="M196,132.8h-17.6c-3.2,0-6.4,3.2-6.4,6.4v97.6c0,3.2,3.2,6.4,6.4,6.4H196c3.2,0,6.4-3.2,6.4-6.4
		v-97.6C202.4,136,200,132.8,196,132.8z"/>
	<path style="fill:#FFFFFF;" d="M187.2,94.4c-9.6,0-17.6,8-17.6,17.6s7.2,17.6,16.8,17.6c4.8,0,9.6-1.6,12.8-5.6
		c3.2-3.2,4.8-7.2,4.8-12C204.8,101.6,196.8,94.4,187.2,94.4z"/>
	<path style="fill:#FFFFFF;" d="M276.8,130.4c-11.2,0-21.6,3.2-29.6,9.6v-1.6c0-3.2-3.2-6.4-6.4-6.4h-16c-1.6,0-3.2,0.8-4.8,1.6
		c-1.6,1.6-1.6,3.2-1.6,4.8c0.8,9.6,0.8,19.2,0.8,32V276c0,3.2,3.2,6.4,6.4,6.4h17.6c3.2,0,6.4-3.2,6.4-6.4v-38.4
		c24.8,16,75.2,3.2,75.2-52C324.8,154.4,304.8,130.4,276.8,130.4z M271.2,157.6c16,0,22.4,15.2,22.4,30.4c0,20-8.8,31.2-23.2,31.2
		c-9.6,0-18.4-6.4-20.8-15.2c0-1.6-0.8-4-0.8-6.4v-16.8c0-1.6,0.8-4,0.8-5.6C253.6,164.8,261.6,157.6,271.2,157.6z"/>
</g>
<g>
</g>
<g>
</g>
<g>
</g>
<g>
</g>
<g>
</g>
<g>
</g>
<g>
</g>
<g>
</g>
<g>
</g>
<g>
</g>
<g>
</g>
<g>
</g>
<g>
</g>
<g>
</g>
<g>
</g>
</svg>
