<?xml version="1.0" encoding="iso-8859-1"?>
<!-- Generator: Adobe Illustrator 19.0.0, SVG Export Plug-In . SVG Version: 6.00 Build 0)  -->
<svg version="1.1" id="Layer_1" xmlns="http://www.w3.org/2000/svg" xmlns:xlink="http://www.w3.org/1999/xlink" x="0px" y="0px"
	 viewBox="0 0 496 496" style="enable-background:new 0 0 496 496;" xml:space="preserve">
<path style="fill:#F79406;" d="M356.389,0c0,0-37.6,142.4,7.2,187.2s108.8-4,92-47.2c0,0,38.4,44.8,6.4,92s23.2,72.8,25.6,8.8
	c0,0,19.2,60-8.8,98.4c-28,38.4-57.6,45.6-57.6,45.6s39.2,6.4,57.6-22.4c0,0-4,60.8-68,86.4s-23.2,28.8-23.2,28.8l-248-313.6
	c0,0,139.2-4,116-87.2c0,0,28,29.6,15.2,68c0,0-48.8,32.8-28.8-47.2C256.389,31.2,356.389,0,356.389,0z"/>
<path style="fill:#D1DBD6;" d="M427.589,444l-306.4-308H1.989v340l84,20c0,0,308.8,0,315.2,0C407.589,496,427.589,444,427.589,444z"
	/>
<path style="fill:#BACCC2;" d="M269.989,444l-148.8-308H1.989v340l84,20c0,0,308.8,0,315.2,0C407.589,496,269.989,444,269.989,444z"
	/>
<path style="fill:#E5420A;" d="M161.989,149.6c0,9.6-10.4,18.4-20,18.4h-115.2c-8.8,0-16.8-8-16.8-16.8v-29.6
	c0-9.6,8-17.6,16.8-17.6h118.4c9.6,0,16.8,6.4,16.8,16V149.6z"/>
<path style="fill:#D63205;" d="M161.989,120v29.6c0,9.6-10.4,18.4-20,18.4h-111.2c-8.8,0-20.8-8.8-20.8-18.4V120"/>
<path style="fill:#C11F05;" d="M161.989,149.6c0,9.6-6.4,18.4-16,18.4h-120.8c-8.8,0-15.2-8.8-15.2-18.4"/>
<path style="fill:#E5420A;" d="M303.589,187.2c-4,8.8-14.4,12-22.4,8l-100.8-46.4c-8.8-4-12-14.4-8-22.4l12-25.6
	c4-8.8,14.4-12,22.4-8l100.8,46.4c8.8,4,12,14.4,8,22.4L303.589,187.2z"/>
<path style="fill:#D63205;" d="M315.589,161.6l-12,25.6c-4,8.8-14.4,12-22.4,8l-100.8-46.4c-8.8-4-12-14.4-8-22.4l12-25.6"/>
<path style="fill:#C11F05;" d="M303.589,187.2c-4,8.8-14.4,12-22.4,8l-100.8-46.4c-8.8-4-12-14.4-8-22.4"/>
<path style="fill:#E5420A;" d="M233.989,230.4c0,9.6-8.8,17.6-18.4,17.6h-106.4c-9.6,0-19.2-8-19.2-17.6v-28.8
	c0-9.6,9.6-17.6,19.2-17.6h108.8c9.6,0,16,8.8,16,17.6V230.4z"/>
<path style="fill:#D63205;" d="M233.989,200v30.4c0,9.6-8.8,17.6-18.4,17.6h-106.4c-9.6,0-19.2-8-19.2-17.6V200"/>
<path style="fill:#C11F05;" d="M233.989,230.4c0,9.6-8.8,17.6-18.4,17.6h-106.4c-9.6,0-19.2-8-19.2-17.6"/>
<path style="fill:#E5420A;" d="M65.989,230.4c0,9.6-6.4,17.6-16,17.6h-25.6c-8.8,0-14.4-8-14.4-17.6v-28.8c0-8.8,5.6-17.6,14.4-17.6
	h25.6c9.6,0,16,8.8,16,17.6V230.4z"/>
<path style="fill:#D63205;" d="M65.989,200v30.4c0,9.6-6.4,17.6-16,17.6h-25.6c-8.8,0-14.4-8-14.4-17.6V200"/>
<path style="fill:#C11F05;" d="M65.989,230.4c0,9.6-6.4,17.6-16,17.6h-25.6c-8.8,0-14.4-8-14.4-17.6"/>
<path style="fill:#E5420A;" d="M65.989,393.6c0,9.6-6.4,14.4-16,14.4h-25.6c-8.8,0-14.4-4.8-14.4-14.4v-28.8
	c0-8.8,5.6-12.8,14.4-12.8h25.6c9.6,0,16,4,16,13.6V393.6z"/>
<path style="fill:#D63205;" d="M65.989,368v25.6c0,9.6-6.4,14.4-16,14.4h-25.6c-8.8,0-14.4-4.8-14.4-14.4V368"/>
<path style="fill:#C11F05;" d="M65.989,392c0,12-6.4,16-16,16h-25.6c-8.8,0-14.4-4-14.4-16"/>
<path style="fill:#E5420A;" d="M145.989,311.2c0,9.6-8,16.8-16.8,16.8h-102.4c-8.8,0-16.8-8-16.8-16.8v-29.6c0-9.6,8-17.6,16.8-17.6
	h101.6c9.6,0,16.8,8,16.8,16.8v30.4H145.989z"/>
<path style="fill:#D63205;" d="M145.989,280v31.2c0,9.6-8,16.8-16.8,16.8h-102.4c-8.8,0-16.8-8-16.8-16.8V280"/>
<path style="fill:#C11F05;" d="M145.989,311.2c0,9.6-8,16.8-16.8,16.8h-102.4c-8.8,0-16.8-8-16.8-16.8"/>
<path style="fill:#E5420A;" d="M321.989,311.2c0,9.6-8,16.8-16.8,16.8h-110.4c-8.8,0-16.8-8-16.8-16.8v-29.6c0-9.6,8-16.8,16.8-16.8
	h109.6c9.6,0,16.8,8,16.8,16.8v29.6H321.989z"/>
<path style="fill:#D63205;" d="M321.989,288v24.8c0,9.6-7.2,15.2-16.8,15.2h-110.4c-9.6,0-16.8-5.6-16.8-15.2V288"/>
<path style="fill:#C11F05;" d="M321.989,311.2c0,12-7.2,16.8-16.8,16.8h-110.4c-9.6,0-16.8-5.6-16.8-16.8"/>
<path style="fill:#E5420A;" d="M153.989,479.2c0,9.6-8,16.8-16.8,16.8h-110.4c-8.8,0-16.8-8-16.8-16.8v-29.6c0-9.6,8-17.6,16.8-17.6
	h109.6c9.6,0,16.8,8,16.8,16.8v30.4H153.989z"/>
<path style="fill:#D63205;" d="M153.989,448v31.2c0,9.6-8,16.8-16.8,16.8h-106.4c-8.8,0-20.8-11.2-20.8-20.8V448"/>
<path style="fill:#C11F05;" d="M153.989,479.2c0,9.6-5.6,16.8-15.2,16.8h-112c-8.8,0-16.8-8-16.8-16.8"/>
<path style="fill:#E5420A;" d="M321.989,479.2c0,9.6-8,16.8-16.8,16.8h-110.4c-8.8,0-16.8-8-16.8-16.8v-29.6c0-9.6,8-16.8,16.8-16.8
	h109.6c9.6,0,16.8,8,16.8,16.8v29.6H321.989z"/>
<path style="fill:#D63205;" d="M321.989,448v27.2c0,9.6-7.2,20.8-16.8,20.8h-110.4c-9.6,0-16.8-11.2-16.8-20.8V448"/>
<path style="fill:#C11F05;" d="M321.989,479.2c0,9.6-7.2,16.8-16.8,16.8h-110.4c-9.6,0-16.8-8-16.8-16.8"/>
<path style="fill:#E5420A;" d="M489.989,479.2c0,9.6-8,16.8-16.8,16.8h-110.4c-8.8,0-16.8-8-16.8-16.8v-29.6c0-9.6,8-16.8,16.8-16.8
	h109.6c9.6,0,16.8,8,16.8,16.8v29.6H489.989z"/>
<path style="fill:#D63205;" d="M489.989,448v27.2c0,9.6-8,20.8-16.8,20.8h-107.2c-9.6,0-20-11.2-20-20.8V448"/>
<path style="fill:#C11F05;" d="M489.989,479.2c0,9.6-8,16.8-16.8,16.8h-110.4c-8.8,0-16.8-8-16.8-16.8"/>
<path style="fill:#E5420A;" d="M233.989,393.6c0,9.6-4.8,14.4-14.4,14.4h-112.8c-9.6,0-16.8-4.8-16.8-14.4v-28.8
	c0-9.6,5.6-13.6,15.2-13.6h114.4c9.6,0,14.4,4,14.4,13.6V393.6z"/>
<path style="fill:#D63205;" d="M233.989,368v25.6c0,9.6-4.8,14.4-14.4,14.4h-112.8c-9.6,0-16.8-4.8-16.8-14.4V368"/>
<path style="fill:#C11F05;" d="M233.989,392c0,12-4.8,16-14.4,16h-112.8c-9.6,0-16.8-4.8-16.8-16"/>
<path style="fill:#E5420A;" d="M409.989,399.2c0,9.6-8,16.8-16.8,16.8h-110.4c-8.8,0-16.8-8-16.8-16.8v-29.6c0-9.6,8-16.8,16.8-16.8
	h109.6c9.6,0,16.8,8,16.8,16.8v29.6H409.989z"/>
<path style="fill:#D63205;" d="M409.989,368v31.2c0,9.6-9.6,8.8-19.2,8.8h-110.4c-9.6,0-14.4,0-14.4-8.8V368"/>
<path style="fill:#C11F05;" d="M409.989,399.2c0,9.6-8,16.8-16.8,16.8h-110.4c-8.8,0-16.8-7.2-16.8-16"/>
<circle style="fill:#FFC200;" cx="353.189" cy="239.2" r="9.6"/>
<g>
	<circle style="fill:#F79406;" cx="390.789" cy="149.6" r="12"/>
	<circle style="fill:#F79406;" cx="416.389" cy="94.4" r="3.2"/>
	<circle style="fill:#F79406;" cx="378.789" cy="28.8" r="3.2"/>
</g>
<g>
	<circle style="fill:#FFC200;" cx="253.189" cy="73.6" r="13.6"/>
	<circle style="fill:#FFC200;" cx="422.789" cy="301.6" r="12.8"/>
	<circle style="fill:#FFC200;" cx="365.989" cy="312.8" r="14.4"/>
</g>
<g>
</g>
<g>
</g>
<g>
</g>
<g>
</g>
<g>
</g>
<g>
</g>
<g>
</g>
<g>
</g>
<g>
</g>
<g>
</g>
<g>
</g>
<g>
</g>
<g>
</g>
<g>
</g>
<g>
</g>
</svg>
