<?xml version="1.0" encoding="iso-8859-1"?>
<!-- Generator: Adobe Illustrator 19.0.0, SVG Export Plug-In . SVG Version: 6.00 Build 0)  -->
<svg version="1.1" id="Layer_1" xmlns="http://www.w3.org/2000/svg" xmlns:xlink="http://www.w3.org/1999/xlink" x="0px" y="0px"
	 viewBox="0 0 511.999 511.999" style="enable-background:new 0 0 511.999 511.999;" xml:space="preserve">
<circle style="fill:#F15A24;" cx="250.439" cy="420.132" r="23.611"/>
<path style="fill:#84DCCF;" d="M50.087,208.655c113.723-113.723,298.104-113.723,411.826,0l38.957-38.957
	c-135.238-135.238-354.501-135.238-489.739,0l-5.565,5.565l38.957,38.957L50.087,208.655z"/>
<path style="fill:#027EA8;" d="M384,286.567c-70.692-70.692-185.308-70.692-256,0l-5.565,5.565l-38.957-38.957l5.565-5.565
	c92.207-92.208,241.705-92.208,333.913,0L384,286.567z"/>
<path style="fill:#FBA218;" d="M205.913,364.48c27.662-27.662,72.511-27.662,100.174,0l38.957-38.957
	c-49.177-49.177-128.91-49.177-178.087,0l-5.565,5.565l38.957,38.957L205.913,364.48z"/>
<path d="M306.087,375.61l-5.565-5.565c-24.548-24.549-64.495-24.55-89.043,0l-5.564,5.565l-11.131-11.129l5.564-5.566
	c28.808-28.807,74.579-30.571,105.464-5.289l27.922-27.921c-21.525-18.884-48.835-29.194-77.733-29.194
	c-31.533,0-61.181,12.28-83.477,34.577l-5.565,5.565l-50.086-50.087l5.564-5.565c35.676-35.677,83.111-55.325,133.565-55.325
	c47.822,0,92.933,17.653,127.888,49.873l27.848-27.848c-42.629-39.933-97.325-61.989-154.874-62.276
	c-0.374-0.002-0.756-0.003-1.131-0.003c-60.226,0-117.4,24.033-161.123,67.754l-5.565,5.565l-50.086-50.087l5.564-5.565
	c27.99-27.989,60.939-49.751,97.931-64.682c35.796-14.446,73.682-21.85,112.608-22.008c0.419-0.002,0.851-0.002,1.271-0.002
	c77.606,0,150.224,28.747,205.509,81.2l27.835-27.837c-63.238-60.437-145.904-93.62-233.675-93.62
	c-90.396,0-175.383,35.202-239.304,99.123l-5.564,5.565L0,169.698l5.564-5.565C72.458,97.239,161.398,60.399,255.999,60.399
	s183.541,36.84,250.435,103.734l5.565,5.565l-50.087,50.087l-5.565-5.565c-52.957-52.957-123.957-82.083-200.018-82.083
	c-0.406,0-0.798,0.001-1.204,0.003c-36.921,0.15-72.845,7.168-106.78,20.864c-32.564,13.142-61.812,31.87-87.049,55.729
	l27.832,27.833c45.918-43.213,104.746-66.883,166.602-66.883c0.408,0,0.803,0.001,1.211,0.003
	c64.305,0.321,125.241,26.02,171.583,72.361l5.565,5.565L384,297.698l-5.565-5.565C345.732,259.43,302.25,241.419,256,241.419
	c-43.615,0-84.772,16.019-116.745,45.272l27.865,27.865c52.477-46.696,133.19-44.894,183.49,5.403l5.565,5.565L306.087,375.61z"/>
<path d="M250.434,451.6c-8.062,0-16.123-3.069-22.26-9.206c-12.274-12.274-12.274-32.247,0-44.522
	c12.274-12.274,32.248-12.275,44.523,0c12.274,12.275,12.274,32.248,0,44.523C266.558,448.532,258.497,451.6,250.434,451.6z
	 M250.435,404.399c-4.032,0-8.062,1.535-11.131,4.604c-6.137,6.137-6.137,16.123,0,22.26c6.137,6.139,16.125,6.138,22.26,0
	c6.137-6.137,6.137-16.123,0-22.261C258.497,405.934,254.465,404.399,250.435,404.399z"/>
<g>
</g>
<g>
</g>
<g>
</g>
<g>
</g>
<g>
</g>
<g>
</g>
<g>
</g>
<g>
</g>
<g>
</g>
<g>
</g>
<g>
</g>
<g>
</g>
<g>
</g>
<g>
</g>
<g>
</g>
</svg>
