<?xml version="1.0" encoding="iso-8859-1"?>
<!-- Generator: Adobe Illustrator 19.0.0, SVG Export Plug-In . SVG Version: 6.00 Build 0)  -->
<svg version="1.1" id="Layer_1" xmlns="http://www.w3.org/2000/svg" xmlns:xlink="http://www.w3.org/1999/xlink" x="0px" y="0px"
	 viewBox="0 0 512 512" style="enable-background:new 0 0 512 512;" xml:space="preserve">
<rect x="55.826" y="7.808" style="fill:#027EA8;" width="288.209" height="496.351"/>
<g>
	<rect x="111.871" y="47.837" style="fill:#84DCCF;" width="20.019" height="392.285"/>
	<rect x="151.753" y="47.837" style="fill:#84DCCF;" width="15.636" height="392.285"/>
	<rect x="55.826" y="7.808" style="fill:#84DCCF;" width="40.028" height="496.351"/>
</g>
<polygon style="fill:#F15A24;" points="456.115,263.991 223.949,263.991 175.915,288.009 175.915,127.895 456.115,127.895 "/>
<g>
	<rect x="55.826" y="7.808" style="fill:#FBB03B;" width="288.209" height="40.028"/>
	<rect x="55.826" y="440.118" style="fill:#FBB03B;" width="288.209" height="64.049"/>
</g>
<g>
	<rect x="55.826" y="440.118" style="fill:#F15A24;" width="64.049" height="64.049"/>
	<circle style="fill:#F15A24;" cx="199.93" cy="472.142" r="32.023"/>
	<rect x="55.826" y="7.808" style="fill:#F15A24;" width="64.049" height="40.028"/>
</g>
<rect x="135.819" y="39.704" width="128.515" height="15.673"/>
<g>
	<rect x="271.648" y="39.704" style="fill:#FFFFFF;" width="16.717" height="15.673"/>
	<rect x="295.679" y="39.704" style="fill:#FFFFFF;" width="16.717" height="15.673"/>
	<rect x="111.787" y="39.704" style="fill:#FFFFFF;" width="15.673" height="15.673"/>
	<rect x="87.753" y="39.704" style="fill:#FFFFFF;" width="15.673" height="15.673"/>
	<rect x="79.394" y="463.909" style="fill:#FFFFFF;" width="16.717" height="15.673"/>
	<rect x="304.038" y="463.909" style="fill:#FFFFFF;" width="15.673" height="15.673"/>
</g>
<path d="M168.079,300.688V120.057h295.872v151.77H225.799L168.079,300.688z M183.752,135.73v139.599l38.348-19.174h226.179V135.73
	H183.752z"/>
<path d="M352.098,111.798V0H48.049v511.972h150.778c0.369,0.01,0.735,0.028,1.105,0.028s0.738-0.018,1.105-0.028h151.059V280.017
	h-15.673v152.547H204.602c-1.533-0.18-3.09-0.282-4.669-0.282s-3.137,0.102-4.669,0.282H63.722V55.377h15.673V39.704H63.722V15.673
	h272.703v24.031h-16.717v15.673h16.717v56.421H352.098z M175.744,472.14c0-12.079,8.902-22.119,20.489-23.904h7.395
	c11.587,1.786,20.489,11.824,20.489,23.904c0,12.965-10.255,23.578-23.079,24.159h-2.214
	C186,495.718,175.744,485.106,175.744,472.14z M336.425,496.299H231.607c3.691-4.828,6.302-10.521,7.477-16.717h16.888v-15.673
	h-17.04c-1.219-5.782-3.692-11.107-7.125-15.673h104.618v48.063H336.425z M168.057,448.237c-3.433,4.566-5.906,9.89-7.125,15.673
	h-16.758v15.673h16.606c1.175,6.197,3.785,11.889,7.478,16.717H63.722v-48.063H168.057z"/>
<g>
	<polygon style="fill:#FFFFFF;" points="359.411,231.955 343.739,231.955 343.739,168.219 340.826,168.219 324.814,199.564 
		307.215,199.564 291.203,168.219 287.318,168.219 287.318,231.955 271.645,231.955 271.645,152.547 300.797,152.547 
		316.014,182.338 331.232,152.547 359.411,152.547 	"/>
	<polygon style="fill:#FFFFFF;" points="263.286,231.955 200.596,231.955 200.596,207.923 216.268,207.923 216.268,216.282 
		247.614,216.282 247.614,199.564 200.596,199.564 200.596,152.547 263.286,152.547 263.286,175.533 247.614,175.533 
		247.614,168.219 216.268,168.219 216.268,183.892 263.286,183.892 	"/>
	<polygon style="fill:#FFFFFF;" points="431.505,231.955 367.77,231.955 367.77,207.923 383.443,207.923 383.443,216.282 
		415.833,216.282 415.833,199.564 367.77,199.564 367.77,152.547 431.505,152.547 431.505,175.533 415.833,175.533 415.833,168.219 
		383.443,168.219 383.443,183.892 431.505,183.892 	"/>
	<rect x="192.24" y="456.595" style="fill:#FFFFFF;" width="15.673" height="31.345"/>
	<rect x="183.881" y="463.909" style="fill:#FFFFFF;" width="32.39" height="15.673"/>
	<polygon style="fill:#FFFFFF;" points="319.708,415.846 159.847,415.846 159.847,400.174 304.035,400.174 304.035,376.143 
		319.708,376.143 	"/>
	<rect x="127.46" y="400.174" style="fill:#FFFFFF;" width="16.717" height="15.673"/>
</g>
<g>
</g>
<g>
</g>
<g>
</g>
<g>
</g>
<g>
</g>
<g>
</g>
<g>
</g>
<g>
</g>
<g>
</g>
<g>
</g>
<g>
</g>
<g>
</g>
<g>
</g>
<g>
</g>
<g>
</g>
</svg>
