<?xml version="1.0" encoding="iso-8859-1"?>
<!-- Generator: Adobe Illustrator 19.0.0, SVG Export Plug-In . SVG Version: 6.00 Build 0)  -->
<svg version="1.1" id="Layer_1" xmlns="http://www.w3.org/2000/svg" xmlns:xlink="http://www.w3.org/1999/xlink" x="0px" y="0px"
	 viewBox="0 0 473.935 473.935" style="enable-background:new 0 0 473.935 473.935;" xml:space="preserve">
<circle style="fill:#344E5D;" cx="236.967" cy="236.967" r="236.967"/>
<g>
	<ellipse style="fill:#F9EED1;" cx="100.59" cy="128.007" rx="30.196" ry="23.498"/>
	<ellipse style="fill:#F9EED1;" cx="125.724" cy="102.884" rx="23.495" ry="30.196"/>
	<path style="fill:#F9EED1;" d="M98.05,125.481l251.115,251.115c6.724,6.728,31.098-17.643,24.367-24.37L122.416,101.107
		C115.692,94.383,91.318,118.753,98.05,125.481z"/>
	<ellipse style="fill:#F9EED1;" cx="346.639" cy="374.067" rx="23.502" ry="30.196"/>
	<path style="fill:#F9EED1;" d="M341.535,348.925c0-12.988,13.534-23.502,30.219-23.51c16.692,0.007,30.211,10.526,30.211,23.51
		c0,12.973-13.519,23.487-30.211,23.495C355.069,372.424,341.535,361.898,341.535,348.925z"/>
	<ellipse style="fill:#F9EED1;" cx="125.724" cy="374.067" rx="23.495" ry="30.196"/>
	<ellipse style="fill:#F9EED1;" cx="100.59" cy="348.922" rx="30.196" ry="23.495"/>
	<path style="fill:#F9EED1;" d="M123.183,376.589l251.115-251.108c6.724-6.731-17.643-31.105-24.374-24.374L98.809,352.222
		C92.085,358.953,116.452,383.327,123.183,376.589z"/>
	<path style="fill:#F9EED1;" d="M341.535,128.014c0.008,12.988,13.534,23.502,30.226,23.502c16.685,0,30.211-10.518,30.204-23.502
		c0-12.973-13.519-23.487-30.204-23.495C355.069,104.527,341.543,115.034,341.535,128.014z"/>
	<path style="fill:#F9EED1;" d="M346.632,133.103c-12.988,0-23.502-13.534-23.51-30.219c0.007-16.692,10.526-30.211,23.51-30.211
		c12.973,0,23.487,13.519,23.495,30.211C370.126,119.565,359.601,133.103,346.632,133.103z"/>
</g>
<path style="fill:#344E5D;" d="M337.663,201.346c0-51.629-44.976-93.631-100.246-93.631c-55.277,0-100.246,42.005-100.246,93.631
	c0,19.962,6.623,38.974,19.169,55.053c-5.527,15.259-6.41,26.234-2.638,32.632c1.923,3.259,5.066,5.332,8.505,5.762
	c4.977,1.635,25.616,8.887,32.25,13.223v10.503c0,2.743,1.448,5.729,18.986,9.392l0.576,0.052c0.438,0,0.849-0.06,1.212-0.176
	c0.445,0.378,1.029,0.692,1.811,0.842c6.526,1.182,13.021,1.905,18.335,2.032h0.045c0.614,0,1.175-0.12,1.673-0.355
	c0.513,0.232,1.081,0.348,1.717,0.348c6.211-0.161,14.133-1.149,21.714-2.702c0.834-0.165,1.433-0.483,1.878-0.902
	c0.389,0.105,0.666,0.105,1.317,0.15l0.644-0.082c13.01-3.046,15.551-5.459,15.551-8.595v-11.439
	c5.238-2.922,15.674-7.143,29.65-11.977c0.161-0.056,0.329-0.112,0.498-0.183c3.996-0.606,7.016-2.563,8.962-5.811
	c3.663-6.107,3.005-16.509-1.957-30.937C330.546,241.742,337.663,222.113,337.663,201.346z"/>
<g>
	<ellipse style="fill:#F9EED1;" cx="237.416" cy="202.73" rx="92.314" ry="85.986"/>
	<path style="fill:#F9EED1;" d="M306.265,248.264l-69.837,2.253l-69.829-2.253c0,0-17.699,37.938,0,40.464
		c0,0,26.559,8.857,32.879,13.912h28.378h17.145h28.385c6.32-5.055,32.879-13.912,32.879-13.912
		C323.968,286.202,306.265,248.264,306.265,248.264z"/>
	<path style="fill:#F9EED1;" d="M273.869,314.827c0,1.22-5.137,3.098-12.108,4.733c-0.198,0.049-2.032-5.156-2.286-5.224
		c-0.314-0.079-1.059,5.961-1.257,6.002c-6.462,1.325-13.893,2.354-20.179,2.514c-0.561,0.015-1.126-4.64-1.673-4.64
		c-0.483,0-0.973,4.655-1.478,4.647c-5.268-0.123-11.326-0.868-16.939-1.886c-0.475-0.09-0.842-6.148-1.317-6.241
		c-0.554-0.108-2.062,5.583-2.215,5.545c-8.464-1.774-15.143-4.045-15.143-5.452v-28.183c0-2.571,3.229-4.651,7.222-4.651h60.153
		c3.989,0,7.222,2.084,7.222,4.651L273.869,314.827L273.869,314.827z"/>
	<path style="fill:#F9EED1;" d="M284.657,322.86c0,12.176-1.987,24.752-11.738,34.847c-6.795,6.799-23.072,11.659-35.929,11.659
		c-12.905,0-29.897-5.56-36.045-11.708c-9.676-10.062-11.615-22.582-11.615-34.802c0-7.39,11.716,20.703,47.655,20.703
		S284.657,315.47,284.657,322.86z"/>
</g>
<g>
	<path style="fill:#344E5D;" d="M222.034,236.462c0,10.481-10.567,14.967-23.607,14.967c-13.04,0-23.607-4.486-23.607-14.967
		c0-5.583,10.567-18.963,23.607-18.963C211.467,217.499,222.034,227.085,222.034,236.462z"/>
	<path style="fill:#344E5D;" d="M253.225,236.462c0,10.481,10.567,14.967,23.599,14.967c13.036,0,23.614-4.486,23.614-14.967
		c0-5.583-10.574-18.963-23.614-18.963C263.792,217.495,253.225,227.085,253.225,236.462z"/>
	<path style="fill:#344E5D;" d="M237.944,236.249c0,0-13.908,16.759-13.908,39.835c0,0,15.648-12.804,29.085,0.632
		C253.121,276.716,250.902,249.214,237.944,236.249z"/>
</g>
<g>
</g>
<g>
</g>
<g>
</g>
<g>
</g>
<g>
</g>
<g>
</g>
<g>
</g>
<g>
</g>
<g>
</g>
<g>
</g>
<g>
</g>
<g>
</g>
<g>
</g>
<g>
</g>
<g>
</g>
</svg>
