<?xml version="1.0" encoding="iso-8859-1"?>
<!-- Generator: Adobe Illustrator 19.0.0, SVG Export Plug-In . SVG Version: 6.00 Build 0)  -->
<svg version="1.1" id="Layer_1" xmlns="http://www.w3.org/2000/svg" xmlns:xlink="http://www.w3.org/1999/xlink" x="0px" y="0px"
	 viewBox="0 0 473.935 473.935" style="enable-background:new 0 0 473.935 473.935;" xml:space="preserve">
<circle style="fill:#E3AA24;" cx="236.967" cy="236.967" r="236.967"/>
<g>
	<path style="fill:#5B4F3F;" d="M393.625,224.945c-23.379-23.379-56.093-31.697-86.14-25.003
		c15.442-16.606,24.898-38.866,24.898-63.334c0-40.262-25.564-74.544-61.347-87.524c24.7,11.843,41.747,37.074,41.747,66.293
		c0,40.583-32.894,73.485-73.478,73.485c-40.58,0-73.481-32.902-73.481-73.485c0-29.22,17.059-54.454,41.751-66.293
		c-35.779,12.977-61.347,47.263-61.347,87.524c0,24.752,9.68,47.229,25.444,63.902c-30.709-7.716-64.576,0.423-88.587,24.434
		c-28.468,28.468-34.634,70.787-18.503,105.26c-9.093-25.837-3.311-55.738,17.351-76.392c28.696-28.7,75.225-28.703,103.917-0.004
		c28.696,28.692,28.7,75.225,0,103.913c-20.662,20.666-50.567,26.443-76.404,17.358c34.477,16.131,76.796,9.961,105.271-18.511
		c11.566-11.57,19.431-25.422,23.641-40.108c4.202,14.687,12.075,28.542,23.633,40.112c28.467,28.468,70.791,34.63,105.26,18.503
		c-25.833,9.089-55.734,3.308-76.392-17.354c-28.696-28.692-28.696-75.221,0-103.913c28.692-28.696,75.221-28.7,103.913,0
		c20.666,20.658,26.447,50.563,17.354,76.4C428.259,295.736,422.096,253.416,393.625,224.945z"/>
	<path style="fill:#5B4F3F;" d="M162.293,238.12c0-0.045,0.004-0.079,0.004-0.123c-7.282-3.046-14.952-4.868-22.701-5.467
		c-0.101,1.848-0.165,3.712-0.165,5.59c0,42.297,26.23,78.563,63.259,93.451c2.765-7.383,4.311-15.113,4.614-22.9
		C180.747,296.267,162.293,269.311,162.293,238.12z"/>
	<path style="fill:#5B4F3F;" d="M195.52,174.394c12.644-8.876,28.019-14.107,44.606-14.107c16.213,0,31.274,4.988,43.756,13.497
		c6.14-4.692,11.517-10.335,15.918-16.707c-16.715-12.344-37.354-19.652-59.674-19.652c-22.799,0-43.846,7.626-60.74,20.449
		C183.868,164.19,189.312,169.772,195.52,174.394z"/>
	<path style="fill:#5B4F3F;" d="M317.962,238.12c0,32.527-20.071,60.449-48.467,72.067c0.46,7.689,2.114,15.319,4.984,22.589
		c38.66-14.077,66.342-51.195,66.342-94.656c0-1.946-0.075-3.865-0.183-5.781c-7.704,0.228-15.375,1.65-22.713,4.288
		C317.932,237.125,317.962,237.622,317.962,238.12z"/>
</g>
<circle style="fill:#E3AA24;" cx="236.855" cy="237.304" r="34.563"/>
<g>
</g>
<g>
</g>
<g>
</g>
<g>
</g>
<g>
</g>
<g>
</g>
<g>
</g>
<g>
</g>
<g>
</g>
<g>
</g>
<g>
</g>
<g>
</g>
<g>
</g>
<g>
</g>
<g>
</g>
</svg>
